<svg viewBox="0 0 209 115" fill="none" xmlns="http://www.w3.org/2000/svg">
<path  
  fill="rgba(255, 255, 255, 0.4)" fill-rule="evenodd" clip-rule="evenodd" d="M81.6266 49.1144L48.1105 49.0794C52.1066 21.3513 75.9786 0.0586569 104.808 0.0889223C133.636 0.119242 157.463 21.4621 161.401 49.1982L127.886 49.1633C124.529 39.6342 115.451 32.8001 104.773 32.7889C94.0948 32.7776 85.0034 39.5925 81.6266 49.1144Z"/>
<path  
  fill="rgba(255, 255, 255, 0.4)" fill-rule="evenodd" clip-rule="evenodd" d="M118.372 57.3278C118.364 64.8528 112.258 70.9467 104.733 70.939C97.2081 70.9308 91.1143 64.8242 91.1224 57.2992C91.1302 49.7748 97.2368 43.681 104.761 43.6888C112.286 43.6968 118.38 49.8034 118.372 57.3278Z" />
<path  
  fill="rgba(255, 255, 255, 0.4)" fill-rule="evenodd" clip-rule="evenodd" d="M104.687 114.539C133.516 114.569 157.388 93.276 161.384 65.5483L127.868 65.5131C124.491 75.035 115.4 81.8497 104.721 81.8387C94.0435 81.8277 84.9662 74.9932 81.6091 65.4647L48.0934 65.4295C52.0311 93.1654 75.8585 114.509 104.687 114.539Z" />
</svg>
